<svg width="400" height="400" viewBox="0 0 400 400" fill="none" xmlns="http://www.w3.org/2000/svg">
<path fill-rule="evenodd" clip-rule="evenodd" d="M177 57.638C172.325 58.419 166.415 59.72 163.866 60.529C161.317 61.338 158.617 62.002 157.866 62.003C156.549 62.007 144.313 66.752 140.405 68.776C139.357 69.318 136.475 70.716 134 71.882C129.034 74.222 123.775 77.183 123 78.075C122.725 78.392 121.037 79.501 119.25 80.541C117.463 81.581 116 82.784 116 83.216C116 83.647 115.438 84.002 114.75 84.005C113.567 84.009 111.628 85.616 101 95.404C94.237 101.632 84 113.262 84 114.717C84 115.423 83.647 116 83.216 116C82.784 116 81.581 117.463 80.541 119.25C79.501 121.037 78.392 122.725 78.075 123C76.677 124.216 71.991 133.246 67.957 142.5C66.998 144.7 65.265 148.65 64.106 151.277C62.948 153.904 62 156.769 62 157.643C62 158.517 61.342 161.317 60.538 163.866C54.638 182.572 54.638 217.428 60.538 236.134C61.342 238.683 62.002 241.383 62.003 242.134C62.007 243.451 66.752 255.687 68.776 259.595C69.318 260.643 70.732 263.525 71.918 266C75.848 274.203 81.934 284 83.099 284C83.594 284 84 284.469 84 285.042C84 286.247 84.4 286.771 90.449 293.5C92.921 296.25 94.956 298.799 94.972 299.164C95.017 300.227 113.687 316 114.9 316C115.505 316 116 316.406 116 316.901C116 317.724 117.717 318.914 126.5 324.174C140.427 332.514 160.491 339.631 178.058 342.46C196.417 345.418 226.016 343.602 239.621 338.685C241.754 337.914 245.975 336.468 249 335.473C254.602 333.629 268.072 327.415 273.5 324.17C282.209 318.964 284 317.724 284 316.901C284 316.406 284.445 316 284.989 316C285.532 316 286.94 315.213 288.117 314.25C296.693 307.237 302.95 301.383 307.363 296.242C315.134 287.189 316 286.06 316 284.989C316 284.445 316.406 284 316.901 284C317.724 284 318.964 282.209 324.17 273.5C327.415 268.072 333.629 254.602 335.473 249C336.468 245.975 337.914 241.754 338.685 239.621C340.846 233.641 343.978 214.268 343.99 206.807C343.999 201.017 343.7 199.903 341.777 198.557C337.543 195.591 335.414 196.589 324.845 206.5C319.273 211.725 314.103 216 313.357 216C312.611 216 312 216.399 312 216.886C312 217.373 310.538 218.519 308.75 219.432C306.962 220.345 303.667 222.117 301.427 223.369C296.498 226.125 289.085 228.819 283 230.066C280.525 230.573 276.475 231.421 274 231.95C263.705 234.152 244.675 232.698 233.5 228.856C231.85 228.289 229.15 227.465 227.5 227.025C224.128 226.126 211.344 219.486 208.921 217.375C208.053 216.619 207.087 216 206.774 216C204.604 216 184 195.396 184 193.226C184 192.913 183.377 191.947 182.615 191.079C178.69 186.606 171.48 169.991 169.997 162C169.537 159.525 168.686 155.475 168.105 153C165.741 142.928 167.644 123.172 172.345 109C174.112 103.672 180.704 90.651 184.051 85.876C185.353 84.019 190.149 78.599 194.709 73.832C203.634 64.501 204.734 61.734 201 58C198.565 55.565 190.165 55.439 177 57.638Z" fill="currentColor"/>
</svg>
