<svg width="400" height="400" viewBox="0 0 400 400" fill="none" xmlns="http://www.w3.org/2000/svg">
<path fill-rule="evenodd" clip-rule="evenodd" d="M186 56V88H200H214V56V24H200H186V56ZM75.241 75.575L65.982 84.993L88.486 107.497C100.863 119.874 111.448 130 112.009 130C113.34 130 130 113.34 130 112.009C130 111.12 85.427 65.872 84.755 66.079C84.615 66.122 80.334 70.395 75.241 75.575ZM291.25 87.576C277.664 101.266 270 109.717 270 111.009C270 113.065 286.043 130 287.991 130C288.552 130 299.138 119.873 311.515 107.496L334.018 84.993L324.522 75.496C319.299 70.273 314.457 66.037 313.763 66.081C313.068 66.126 302.938 75.799 291.25 87.576ZM184 113C184 113.55 181.75 114 179 114C176.25 114 174 114.45 174 115C174 115.55 172.65 116 171 116C169.35 116 168 116.45 168 117C168 117.55 167.1 118 166 118C164.9 118 164 118.45 164 119C164 119.55 163.1 120 162 120C160.9 120 160 120.45 160 121C160 121.55 159.1 122 158 122C156.9 122 156 122.45 156 123C156 123.55 155.199 124 154.221 124C153.242 124 151.793 124.9 151 126C150.207 127.1 148.977 128 148.266 128C146.581 128 128 146.581 128 148.266C128 148.977 127.1 150.207 126 151C124.9 151.793 124 153.242 124 154.221C124 155.199 123.55 156 123 156C122.45 156 122 156.9 122 158C122 159.1 121.55 160 121 160C120.45 160 120 160.9 120 162C120 163.1 119.55 164 119 164C118.45 164 118 164.9 118 166C118 167.1 117.55 168 117 168C116.45 168 116 169.35 116 171C116 172.65 115.55 174 115 174C114.45 174 114 176.25 114 179C114 181.75 113.55 184 113 184C112.375 184 112 190 112 200C112 210 112.375 216 113 216C113.55 216 114 218.25 114 221C114 223.75 114.45 226 115 226C115.55 226 116 227.35 116 229C116 230.65 116.45 232 117 232C117.55 232 118 232.9 118 234C118 235.1 118.45 236 119 236C119.55 236 120 236.9 120 238C120 239.1 120.45 240 121 240C121.55 240 122 240.9 122 242C122 243.1 122.45 244 123 244C123.55 244 124 244.801 124 245.779C124 246.758 124.9 248.207 126 249C127.1 249.793 128 251.023 128 251.734C128 253.419 146.581 272 148.266 272C148.977 272 150.207 272.9 151 274C151.793 275.1 153.242 276 154.221 276C155.199 276 156 276.45 156 277C156 277.55 156.9 278 158 278C159.1 278 160 278.45 160 279C160 279.55 160.9 280 162 280C163.1 280 164 280.45 164 281C164 281.55 164.9 282 166 282C167.1 282 168 282.45 168 283C168 283.55 169.35 284 171 284C172.65 284 174 284.45 174 285C174 285.55 176.25 286 179 286C181.75 286 184 286.45 184 287C184 287.625 190 288 200 288C210 288 216 287.625 216 287C216 286.45 217.8 286 220 286C222.2 286 224 285.55 224 285C224 284.45 225.8 284 228 284C230.2 284 232 283.55 232 283C232 282.45 232.9 282 234 282C235.1 282 236 281.55 236 281C236 280.45 236.9 280 238 280C239.1 280 240 279.55 240 279C240 278.45 240.9 278 242 278C243.1 278 244 277.55 244 277C244 276.45 244.801 276 245.779 276C246.758 276 248.207 275.1 249 274C249.793 272.9 251.023 272 251.734 272C253.419 272 272 253.419 272 251.734C272 251.023 272.9 249.793 274 249C275.1 248.207 276 246.758 276 245.779C276 244.801 276.45 244 277 244C277.55 244 278 243.1 278 242C278 240.9 278.45 240 279 240C279.55 240 280 239.1 280 238C280 236.9 280.45 236 281 236C281.55 236 282 235.1 282 234C282 232.9 282.45 232 283 232C283.55 232 284 230.2 284 228C284 225.8 284.45 224 285 224C285.55 224 286 222.2 286 220C286 217.8 286.45 216 287 216C287.625 216 288 210 288 200C288 190 287.625 184 287 184C286.45 184 286 181.75 286 179C286 176.25 285.55 174 285 174C284.45 174 284 172.65 284 171C284 169.35 283.55 168 283 168C282.45 168 282 167.1 282 166C282 164.9 281.55 164 281 164C280.45 164 280 163.1 280 162C280 160.9 279.55 160 279 160C278.45 160 278 159.1 278 158C278 156.9 277.55 156 277 156C276.45 156 276 155.199 276 154.221C276 153.242 275.1 151.793 274 151C272.9 150.207 272 148.977 272 148.266C272 147.556 267.731 142.705 262.513 137.487C257.295 132.269 252.444 128 251.734 128C251.023 128 249.793 127.1 249 126C248.207 124.9 246.758 124 245.779 124C244.801 124 244 123.55 244 123C244 122.45 243.1 122 242 122C240.9 122 240 121.55 240 121C240 120.45 239.1 120 238 120C236.9 120 236 119.55 236 119C236 118.45 235.1 118 234 118C232.9 118 232 117.55 232 117C232 116.45 230.65 116 229 116C227.35 116 226 115.55 226 115C226 114.45 223.75 114 221 114C218.25 114 216 113.55 216 113C216 112.375 210 112 200 112C190 112 184 112.375 184 113ZM208 139C208 139.55 209.8 140 212 140C214.2 140 216 140.45 216 141C216 141.55 217.35 142 219 142C220.65 142 222 142.45 222 143C222 143.55 222.9 144 224 144C225.1 144 226 144.45 226 145C226 145.55 226.9 146 228 146C229.1 146 230 146.45 230 147C230 147.55 230.801 148 231.779 148C232.758 148 234.207 148.9 235 150C235.793 151.1 237.029 152 237.747 152C239.446 152 248 160.554 248 162.253C248 162.971 248.9 164.207 250 165C251.1 165.793 252 167.242 252 168.221C252 169.199 252.45 170 253 170C253.55 170 254 170.9 254 172C254 173.1 254.45 174 255 174C255.55 174 256 174.9 256 176C256 177.1 256.45 178 257 178C257.55 178 258 179.35 258 181C258 182.65 258.45 184 259 184C259.55 184 260 185.8 260 188C260 190.2 260.45 192 261 192C261.583 192 262 195.333 262 200C262 204.667 261.583 208 261 208C260.45 208 260 209.8 260 212C260 214.2 259.55 216 259 216C258.45 216 258 217.35 258 219C258 220.65 257.55 222 257 222C256.45 222 256 222.9 256 224C256 225.1 255.55 226 255 226C254.45 226 254 226.9 254 228C254 229.1 253.55 230 253 230C252.45 230 252 230.801 252 231.779C252 232.758 251.1 234.207 250 235C248.9 235.793 248 237.029 248 237.747C248 239.446 239.446 248 237.747 248C237.029 248 235.793 248.9 235 250C234.207 251.1 232.758 252 231.779 252C230.801 252 230 252.45 230 253C230 253.55 229.1 254 228 254C226.9 254 226 254.45 226 255C226 255.55 225.1 256 224 256C222.9 256 222 256.45 222 257C222 257.55 220.65 258 219 258C217.35 258 216 258.45 216 259C216 259.55 214.2 260 212 260C209.8 260 208 260.45 208 261C208 261.583 204.667 262 200 262C195.333 262 192 261.583 192 261C192 260.45 190.2 260 188 260C185.8 260 184 259.55 184 259C184 258.45 182.65 258 181 258C179.35 258 178 257.55 178 257C178 256.45 177.1 256 176 256C174.9 256 174 255.55 174 255C174 254.45 173.1 254 172 254C170.9 254 170 253.55 170 253C170 252.45 169.199 252 168.221 252C167.242 252 165.793 251.1 165 250C164.207 248.9 162.971 248 162.253 248C160.554 248 152 239.446 152 237.747C152 237.029 151.1 235.793 150 235C148.9 234.207 148 232.758 148 231.779C148 230.801 147.55 230 147 230C146.45 230 146 229.1 146 228C146 226.9 145.55 226 145 226C144.45 226 144 225.1 144 224C144 222.9 143.55 222 143 222C142.45 222 142 220.65 142 219C142 217.35 141.55 216 141 216C140.45 216 140 214.2 140 212C140 209.8 139.55 208 139 208C138.429 208 138 205 138 201C138 197 138.429 194 139 194C139.55 194 140 191.75 140 189C140 186.25 140.45 184 141 184C141.55 184 142 182.65 142 181C142 179.35 142.45 178 143 178C143.55 178 144 177.1 144 176C144 174.9 144.45 174 145 174C145.55 174 146 173.1 146 172C146 170.9 146.45 170 147 170C147.55 170 148 169.199 148 168.221C148 167.242 148.9 165.793 150 165C151.1 164.207 152 162.971 152 162.253C152 161.535 154.013 158.934 156.474 156.474C158.934 154.013 161.535 152 162.253 152C162.971 152 164.207 151.1 165 150C165.793 148.9 167.242 148 168.221 148C169.199 148 170 147.55 170 147C170 146.45 170.9 146 172 146C173.1 146 174 145.55 174 145C174 144.45 174.9 144 176 144C177.1 144 178 143.55 178 143C178 142.45 179.35 142 181 142C182.65 142 184 141.55 184 141C184 140.45 185.8 140 188 140C190.2 140 192 139.55 192 139C192 138.417 195.333 138 200 138C204.667 138 208 138.417 208 139ZM24 200V214H56H88V200V186H56H24V200ZM312 200V214H344H376V200V186H344H312V200ZM88.241 292.585L65.982 315.007L75.487 324.513L84.993 334.018L107.496 311.515C119.873 299.138 130 288.552 130 287.991C130 286.462 113.225 269.987 111.764 270.081C111.069 270.126 100.483 280.253 88.241 292.585ZM278.25 278.565C273.712 283.189 270 287.432 270 287.992C270 288.552 280.127 299.138 292.504 311.515L315.007 334.018L324.513 324.513L334.018 315.007L311.515 292.504C299.138 280.127 288.446 270.035 287.755 270.078C287.065 270.121 282.788 273.94 278.25 278.565ZM186 344V376H200H214V344V312H200H186V344Z" fill="currentColor"/>
</svg>
